<svg xmlns="http://www.w3.org/2000/svg" xmlns:svg="http://www.w3.org/2000/svg" style="display: flex;justify-content: center;justify-items: center;" height="320" width="380">
 <!-- Created with SVG-edit - https://github.com/SVG-Edit/svgedit-->

 <g class="layer" style="transform: translate(-70%, -85px);">
  <title>Layer 1</title>
  <g id="svg_11">
   <path d="m446.49978,98.33334l32.45781,-12.33334l-9.26266,38l148.20257,249.33333l17.4356,12l-26.15339,15.33333l-38.14037,-33.33333l-100.79954,-218" fill="#cccccc" id="svg_7" stroke="#000000" stroke-width="0"/>
   <path d="m289.40001,401.9945l157.31928,-303.99447l161.91556,302.94363l-319.23484,1.05084z" fill="#cccccc" id="svg_5" stroke="#000000" stroke-width="0"/>
   <path d="m324.89785,386.63337l154.69664,-301l155.27562,299.97965l-309.97226,1.02035z" fill="#0b829c" id="svg_6" stroke="#000000" stroke-width="0"/>
   <path d="m389.19167,351.2994l90.52296,-176.13446l90.86176,175.53739l-181.38471,0.59707l-0.00001,0z" fill="#ffffff" id="svg_9" stroke="#000000" stroke-width="0"/>
   <path d="m470.29427,194.46668l80.58515,155.53332l19.61505,0.66667l-90.99202,-175.33333l-9.20818,19.13335l0,-0.00001z" fill="#cccccc" id="svg_10" stroke="#000000" stroke-width="0"/>
  </g>
 </g>
 <g class="layer" style="transform: translate(-70%, -85px);">
  <title>Layer 2</title>
  <path d="m442.06373,305.7756c-1.43309,0.68457 -1.88908,1.33937 -2.50791,3.77999l0.39084,-1.42866l-10.32478,12.56029l-8.63113,9.82203l-3.96339,0.11461c-15.21033,0.08929 -17.52961,8.39379 -16.89132,11.49056c0.63829,3.09677 2.91268,5.02869 6.05615,4.90925c3.14347,-0.11944 8.5855,-1.76671 14.12245,-7.57063l4.42936,-4.59086l3.34707,-0.06695c5.08097,-0.02976 4.73994,0.01789 4.69352,0.38248c-0.04642,0.36459 -0.41552,1.92901 -1.35896,5.13123c-0.94344,3.20222 -1.82684,4.73992 1.13686,4.87382c2.9637,0.13391 4.09457,-1.3096 4.42027,-2.23228c0.13028,-0.3274 0.61884,-2.26204 1.07482,-4.31574l0.8794,-3.72046l3.2896,-0.08929c6.05807,-0.08929 7.00261,-0.35716 7.13289,-2.61921l-0.39084,-1.75606l-5.56952,0.20835c-1.85651,-0.02976 -3.35474,-0.11905 -3.35474,-0.14882c0,-0.02976 1.30281,-5.53605 2.93133,-12.26265c1.59594,-6.69684 2.80105,-12.29242 2.63819,-12.44123c-0.13842,-0.1265 -0.36234,-0.22137 -0.63716,-0.28508c-0.27481,-0.06371 -0.60051,-0.09627 -0.9425,-0.09813c-0.34199,-0.00186 -0.70026,0.02697 -1.04021,0.08604c-0.33995,0.05906 -0.66158,0.14835 -0.93029,0.26741l0,-0.00001zm-6.09866,18.42374l-2.04273,6.32849l-3.29078,0.01118l-2.46754,-0.02788l0.45805,-0.00203c1.98679,-2.3811 8.54721,-10.5665 8.35591,-10.02899c-0.19129,0.53751 -0.55679,2.47609 -1.01291,3.71922l0,0.00001zm-21.22781,12.82816c-4.52094,4.35171 -6.78175,4.50394 -7.70943,4.34179c-0.92769,-0.16215 -1.47166,-0.76394 -0.71485,-2.30876c0.75681,-1.54482 3.57131,-2.81681 8.39171,-3.61051c4.8204,-0.7937 2.11707,-0.6548 2.14964,-0.6548c0.06514,-0.02976 2.40387,-2.11943 -2.11707,2.23228z" fill="black" id="svg_8" stroke-width="15" transform="rotate(-0.516231, 424.701, 326.225)"/>
  <path d="m521.46685,304.75099c-1.43309,0.68457 -1.88908,1.33937 -2.50791,3.77999l0.39084,-1.42866l-10.32478,12.56029l-8.63113,9.82203l-3.96339,0.11461c-15.21033,0.08929 -17.52961,8.39379 -16.89132,11.49056c0.63829,3.09677 2.91268,5.02869 6.05615,4.90925c3.14347,-0.11944 8.5855,-1.76671 14.12245,-7.57063l4.42936,-4.59086l3.34707,-0.06695c5.08097,-0.02976 4.73994,0.01789 4.69352,0.38248c-0.04642,0.36459 -0.41552,1.92901 -1.35896,5.13123c-0.94344,3.20222 -1.82684,4.73992 1.13686,4.87382c2.9637,0.13391 4.09457,-1.3096 4.42027,-2.23228c0.13028,-0.3274 0.61884,-2.26204 1.07482,-4.31574l0.8794,-3.72046l3.2896,-0.08929c6.05807,-0.08929 7.00261,-0.35716 7.13289,-2.61921l-0.39084,-1.75606l-5.56952,0.20835c-1.85651,-0.02976 -3.35474,-0.11905 -3.35474,-0.14882c0,-0.02976 1.30281,-5.53605 2.93133,-12.26265c1.59594,-6.69684 2.80105,-12.29242 2.63819,-12.44123c-0.13842,-0.1265 -0.36234,-0.22137 -0.63716,-0.28508c-0.27481,-0.06371 -0.60051,-0.09627 -0.9425,-0.09813c-0.34199,-0.00186 -0.70026,0.02697 -1.04021,0.08604c-0.33995,0.05906 -0.66158,0.14835 -0.93029,0.26741l0,-0.00001zm-6.09866,18.42374l-2.04273,6.32849l-3.29078,0.01118l-2.46754,-0.02788l0.45805,-0.00203c1.98679,-2.3811 8.54721,-10.5665 8.35591,-10.02899c-0.19129,0.53751 -0.55679,2.47609 -1.01291,3.71922l0,0.00001zm-21.22781,12.82816c-4.52094,4.35171 -6.78175,4.50394 -7.70943,4.34179c-0.92769,-0.16215 -1.47166,-0.76394 -0.71485,-2.30876c0.75681,-1.54482 3.57131,-2.81681 8.39171,-3.61051c4.8204,-0.7937 2.11707,-0.6548 2.14964,-0.6548c0.06514,-0.02976 2.40387,-2.11943 -2.11707,2.23228z" fill="black" id="svg_12" stroke-width="15" transform="rotate(-0.516231, 504.103, 325.201)"/>
 </g>
 <g class="layer" style="transform: translate(-70%, -85px);">
  <title>Layer 3</title>
  <g class="layer" id="svg_2">
   <path d="m468.13381,328.15489l4.55291,-2.38945l-0.66783,15.49971c0,0 -1.07157,1.43723 -3.29597,2.58752l-0.58911,-15.69777z" id="svg_19"/>
   <path d="m473.94112,291.01298c0,0 -5.03537,2.6637 -6.95252,5.65496l0.78971,23.1937c0,0 4.24058,-1.38136 5.1598,-3.06744l1.00301,-25.78122z" id="svg_18"/>
   <path d="m466.34616,255.6714c0,0 1.3966,-1.41437 4.80684,-2.05681c0,0 0.32249,2.12029 2.74241,1.92731l0.04571,20.6265c0,0 -3.79621,5.20551 -7.59496,7.00585l0,-27.50284z" id="svg_17"/>
   <path d="m466.34616,238.07172l0,7.2547c0,0 3.77336,-2.12029 7.54671,-1.86382c0,0 -0.03047,-4.37516 -0.34026,-6.46498c-1.03602,-6.95506 -6.8992,-4.08061 -7.20645,1.07411" id="svg_16"/>
   <path d="m473.93604,307.05863l0,6.7443c0,0 2.48595,3.2198 -3.66671,5.97998c-6.83572,3.06744 -13.50384,7.89459 -2.48849,16.40369l0,-5.21312c0,0 -4.38532,-2.91254 2.65862,-5.6321c8.39737,-3.24265 17.75458,-9.92855 3.49658,-18.28275" fill="#007f7f" id="svg_15"/>
   <path d="m474.7029,269.19302l0,7.58988c0,0 -0.20568,2.26503 -7.97077,8.04695c-7.72446,5.74891 -13.2423,16.38592 0,24.06975l-0.10919,-8.5091c0,0 -4.10854,-3.02681 3.7759,-8.81381c6.62242,-4.8627 20.22783,-12.66842 4.30406,-22.38367" fill="#007f7f" id="svg_14"/>
   <path d="m471.71164,252.02247c0,0 0.88113,4.04506 9.81174,2.06951c4.50213,-0.99539 -1.07411,-8.18153 -4.90587,-8.96871c-1.11728,-0.22853 -6.43959,-1.07157 -13.95075,3.8343c-7.51116,4.90333 -9.04488,14.56272 2.83637,23.45525l0,-9.73556c0,0 -9.04488,-7.12773 6.20852,-10.65478" fill="#007f7f" id="svg_13"/>
  </g>
 </g>
</svg>